<svg xmlns="http://www.w3.org/2000/svg" width="256" height="256"><path fill="#1976D2" fill-opacity=".016" fill-rule="evenodd" d="M0 128.004v128.004l128.25-.254 128.25-.254.254-127.75L257.008 0H0zm.485.496c0 70.4.119 99.053.265 63.672s.146-92.98 0-128S.485 58.1.485 128.5"/><path fill="#1976D2" fill-opacity=".251" fill-rule="evenodd" d="M108.995 10.387c-5.431 1.422-13.022 6.471-16.415 10.919-5.02 6.582-6.535 11.534-6.558 21.444L86 52H73.923c-12.015 0-12.092.015-15 2.923L56 57.846v99.308l2.923 2.923L61.846 163h64.627c70.496 0 69.403.086 71.586-5.654 1.377-3.623-.865-96.999-2.409-100.317-1.898-4.077-5.158-4.998-17.752-5.014L166.296 52l-.594-8.75c-.326-4.812-1.334-10.885-2.24-13.494-2.246-6.474-9.296-14.039-16.259-17.446-5.349-2.617-6.573-2.8-19.703-2.946-8.074-.09-15.907.343-18.505 1.023m-2.495 9.182c-8.927 4.634-12.447 11.314-12.478 23.681L94 52h8l.022-9.25c.024-9.921 1.537-14.862 6.579-21.472 2.781-3.645 2.333-4.01-2.101-1.709m16 0c-8.792 4.564-12.5 11.608-12.5 23.747V52h32v-5.451c0-12.188-3.063-19.326-10.839-25.257-4.992-3.807-4.741-3.757-8.661-1.723m20.996 3.425c4.18 6.211 5.313 10.034 6.153 20.756l.646 8.25H158v-5.451c0-7.436-1.714-14.836-4.325-18.67-2.55-3.744-8.235-8.403-11.397-9.338-2.038-.604-1.938-.237 1.218 4.453m-32.889 163.588c-.939 2.446-.729 3.418.738 3.418 1.35 0 4.655-3.073 4.655-4.329 0-1.408-4.815-.595-5.393.911M24 187.845c0 1.201 3.433 4.155 4.829 4.155 1.302 0 1.475-1.045.564-3.418-.62-1.616-5.393-2.268-5.393-.737m7.241 3.141c-1.749 2.801-1.773 2.783 3.706 2.783h4.948l-1.563-2.384c-1.9-2.901-5.406-3.098-7.091-.399m74.759-.141c0 1.513 3.607 4.155 5.674 4.155 1.875 0 5.326-2.805 5.326-4.329 0-1.106-3.829-.757-4.554.416-.484.783-.976.783-1.759 0-1.283-1.283-4.687-1.459-4.687-.242m-76.5 5.1c-3.331 1.364-5.64 4.68-6.208 8.917C22.11 213.674 26.148 219 34.011 219c8.568 0 13.397-7.059 10.977-16.046-1.711-6.351-9.016-9.657-15.488-7.009M0 207.5V219h3c2.889 0 3-.167 3-4.5V210h8v4.5c0 4.333.111 4.5 3 4.5h3v-23h-2.943c-2.746 0-2.962.283-3.25 4.25-.298 4.125-.417 4.259-4.057 4.56l-3.75.311v-4.561c0-4.4-.105-4.56-3-4.56H0zm57.18-9.25c.234 1.642.995 2.255 2.82 2.267 2.464.016 2.504.149 2.788 9.25l.287 9.233H69v-18h3c2.533 0 3-.389 3-2.5 0-2.483-.062-2.5-9.07-2.5-8.833 0-9.061.059-8.75 2.25M78 207.5V219h3c2.889 0 3-.167 3-4.5V210h8v4.5c0 4.333.111 4.5 3 4.5h3v-23h-3c-2.889 0-3 .167-3 4.5v4.5h-8v-4.5c0-4.333-.111-4.5-3-4.5h-3zm26.516-1.299c-2.121 5.664-4.053 10.862-4.294 11.549-.286.819.598 1.25 2.563 1.25 2.364 0 3.131-.529 3.626-2.5.538-2.146 1.194-2.5 4.633-2.5 3.352 0 4.16.408 4.956 2.5.731 1.923 1.664 2.5 4.043 2.5 3.546 0 3.665 1.026-1.566-13.5-3.168-8.796-3.32-9.007-6.673-9.299l-3.43-.299zm20.701 1.049.283 11.25 2.75.316 2.75.317.033-7.317.034-7.316 2.006 2.41c1.104 1.325 2.429 3.125 2.945 4 .792 1.343 1.446.995 4.21-2.237l3.272-3.828V218.5h6l.283-11.25.283-11.25h-3.397c-2.834 0-3.856.662-6.169 4-1.525 2.2-2.875 4-3 4s-1.475-1.8-3-4c-2.313-3.338-3.335-4-6.169-4h-3.397zM163 207v11h6v-14.464l2.536 3.732c1.395 2.053 2.857 3.732 3.25 3.732s2.16-1.687 3.926-3.75l3.213-3.75.037 7.611c.038 7.572.051 7.609 2.538 7.134 2.484-.475 2.5-.547 2.5-11.362V196h-2.867c-2.237 0-3.449.879-5.514 4-1.456 2.2-2.978 3.983-3.383 3.962s-1.969-1.821-3.476-4c-2.166-3.131-3.372-3.962-5.75-3.962H163zm33.692-6.75c-.823 2.338-2.661 7.287-4.085 11l-2.59 6.75h2.585c1.744 0 2.755-.651 3.108-2 .425-1.624 1.364-2 5-2s4.575.376 5 2c.376 1.438 1.364 2 3.514 2 1.96 0 2.838-.431 2.55-1.25-.242-.687-1.965-5.637-3.829-11-3.33-9.583-3.443-9.75-6.573-9.75-2.845 0-3.343.453-4.68 4.25M215 207v11h3c2.762 0 3-.278 3-3.5 0-4.737 3.008-4.805 5.242-.118 1.304 2.734 2.298 3.462 5.186 3.799 1.964.23 3.572.162 3.572-.15s-1.168-2.286-2.596-4.387l-2.596-3.821 2.096-1.468c1.517-1.063 2.096-2.543 2.096-5.355 0-5.505-2.504-7-11.723-7H215zm22.667-10.333c-1.781 1.78-.461 3.333 2.833 3.333h3.5v9c0 8.933.019 9 2.5 9s2.5-.067 2.5-9v-9h3.5c2.833 0 3.5-.381 3.5-2 0-1.849-.667-2-8.833-2-4.859 0-9.134.3-9.5.667M31 202c-3.771 3.771-1.47 12 3.357 12 3.317 0 4.643-1.893 4.643-6.629 0-6.702-3.99-9.381-8-5.371m190 1.437c0 3.033.335 3.561 2.25 3.548 3.381-.023 4.964-1.437 4.587-4.098-.265-1.875-1.034-2.454-3.587-2.7-3.117-.301-3.25-.168-3.25 3.25m-21.475 1.448a214 214 0 0 1-.851 3.765c-.096.377.88.762 2.169.857 2.102.155 2.28-.141 1.731-2.886-.901-4.508-2.269-5.287-3.049-1.736m-89.306.916c-1.006 2.885-.924 3.199.833 3.199 2.04 0 2.32-1.19 1.045-4.449-.672-1.717-.895-1.569-1.878 1.25m-27.013 29.338.294 7.139 3.411.37c5.771.627 9.201-4.393 5.518-8.077-.865-.864-2.665-1.571-4-1.571-1.924 0-2.429-.52-2.429-2.5 0-1.587-.564-2.5-1.544-2.5-1.275 0-1.492 1.243-1.25 7.139M177 228.917c0 .504.546 1.098 1.213 1.321.747.249.17 1.311-1.5 2.763-4.536 3.945-3.004 9.999 2.53 9.999 2.164 0 5.049-2.517 5.274-4.601.113-1.044.533-2.665.933-3.601 1.013-2.371-.433-4.581-1.615-2.468-.488.873-1.562 1.328-2.387 1.012-1.13-.434-1.225-.906-.387-1.915.611-.737.821-1.809.466-2.383-.795-1.286-4.527-1.391-4.527-.127M46.204 235.75c.312 7.106 2.065 8.926 2.61 2.709l.314-3.582 2.97 4.099c1.633 2.255 3.404 3.831 3.936 3.503.531-.328.966-3.495.966-7.038 0-4.939-.336-6.441-1.44-6.441-.941 0-1.547 1.297-1.75 3.75l-.31 3.75-2.332-3.75c-3.719-5.983-5.315-5.018-4.964 3m25.339-5.819c-.74 1.197 1.141 2.382 2.473 1.559 1.119-.691.384-2.49-1.016-2.49-.485 0-1.141.419-1.457.931M131 230.5c0 .825.675 1.5 1.5 1.5s1.5-.675 1.5-1.5-.675-1.5-1.5-1.5-1.5.675-1.5 1.5m-7.145 1.25c-.621 7.47 1.45 12.12 4.817 10.815 1.734-.671 1.738-.774.078-1.997-1.988-1.464-2.264-3.654-.663-5.255.783-.783.58-1.679-.722-3.2-2.202-2.571-3.317-2.687-3.51-.363m29.489.757c-.664 1.433-.771 2.729-.25 3.051.498.308.906 1.853.906 3.434 0 2.041.608 3.066 2.101 3.54 2.617.831 5.04-1.157 2.566-2.106-1.892-.726-2.205-3.488-.58-5.113.783-.783.58-1.679-.722-3.2-2.291-2.675-2.612-2.644-4.021.394m-84.84-.378c-.379.988-1.612 1.34-3.803 1.084-4.49-.524-7.519 2.696-5.894 6.263C61.109 244.528 69 243.512 69 238.165c0-1.521.54-3.305 1.2-3.965.915-.915.922-1.478.033-2.367-.89-.89-1.301-.819-1.729.296m100.746.577c-1.823.351-2.25 1.098-2.25 3.937 0 2.796-.353 3.437-1.75 3.172-1.153-.218-1.857-1.438-2.063-3.573-.416-4.302-3.187-4.455-3.187-.176 0 5.234 1.578 7.032 5.798 6.606 3.235-.326 3.745-.74 4.039-3.273.185-1.594.972-3.259 1.75-3.699 1.452-.821 2.007-3.808.663-3.564-.412.075-1.762.331-3 .57m-97.82 1.616c-1.058 2.756-.017 8.178 1.57 8.178 1.107 0 1.5-1.157 1.5-4.417 0-4.402-1.921-6.756-3.07-3.761m24.091 2.554c-.551 3.263-.263 4.299 1.822 6.55 2.302 2.483 4.719 2.101 3.116-.493-.396-.64.08-.94 1.191-.75 1.497.257 1.911-.427 2.169-3.581.353-4.313-.761-5.562-4.981-5.587-2.316-.013-2.747.489-3.317 3.861M106 238.189c0 5.759 2.172 6.346 3 .811.709-4.739 2.799-4.994 3.186-.389.173 2.054.903 3.928 1.623 4.165.984.323 1.232-.773 1-4.423l-.309-4.853-4.25-.144-4.25-.145zm25.195-.439c.168 2.613.755 4.75 1.305 4.75s1.137-2.137 1.305-4.75c.245-3.826-.009-4.75-1.305-4.75s-1.55.924-1.305 4.75m4.163-3.24c-.999 2.602.109 7.99 1.642 7.99 1.024 0 1.405-.821 1.2-2.586-.339-2.921 2.432-6.152 3.239-3.777.255.75.597 2.393.762 3.653.519 3.977 2.299 2.398 2.299-2.04v-4.25l-4.322-.145c-2.736-.092-4.504.331-4.82 1.155M187 238.026c0 5.898 2.158 6.599 3 .974.709-4.739 2.799-4.994 3.186-.389.173 2.054.903 3.928 1.623 4.165.984.323 1.232-.773 1-4.423l-.309-4.853-4.25-.307-4.25-.308zm12.16-3.786c-1.936 1.936-1.391 6.566.918 7.802 1.143.612 2.718.866 3.5.566s1.422-.109 1.422.423c0 .533-1.35.969-3 .969-3.206 0-4.03 1.391-1.418 2.393 4.971 1.908 8.418-1.477 8.418-8.266v-4.873l-4.34-.087c-2.387-.048-4.862.435-5.5 1.073m-136.869 1.869c-1.585 1.585-.467 3.891 1.886 3.891 1.445 0 1.878-.572 1.643-2.172-.377-2.556-1.934-3.314-3.529-1.719m24.376-.442c-1.465 1.465-.622 4.333 1.274 4.333 2.553 0 3.535-1.721 2.023-3.544-1.321-1.591-2.269-1.818-3.297-.789m11.146.016c.721.289 1.584.253 1.916-.079s-.258-.568-1.312-.525c-1.165.048-1.402.285-.604.604m79.875-.037c-1.541 1.54-.648 4.354 1.382 4.354 1.555 0 1.99-.539 1.75-2.172-.332-2.255-1.94-3.375-3.132-2.182m23.979.021c-1.465 1.465-.622 4.333 1.274 4.333 2.553 0 3.535-1.721 2.023-3.544-1.321-1.591-2.269-1.818-3.297-.789M98 239c0 .55.702 1 1.559 1s1.281-.45.941-1-1.041-1-1.559-1-.941.45-.941 1"/><path fill="#1976D2" fill-opacity=".191" fill-rule="evenodd" d="M120.5 9.918c-13.608.66-18.403 2.358-24.987 8.849-6.07 5.983-8.845 13.113-9.335 23.983L85.761 52h7l.407-9.299c.345-7.894.82-10.006 3.143-13.969 2.709-4.623 8.933-9.751 13.615-11.218 2.267-.711 2.179-.425-1.357 4.392-5.561 7.576-6.569 12.08-6.569 29.359 0 14.484-.077 15.038-2.5 17.917-6.77 8.047 2.638 18.217 10.865 11.745 3.048-2.397 3.646-8.153 1.134-10.928-1.187-1.312-1.553-5.197-1.75-18.579-.284-19.279.408-21.716 8.153-28.713 5.699-5.148 8.254-5.564 13.184-2.147C138.736 25.861 142 33.058 142 44.626V52h7.239l-.417-9.25c-.446-9.885-3.16-17.742-7.797-22.566-3.206-3.335-2.096-3.522 3.717-.625C155.22 24.78 158 31.741 158 52.751c0 12.919-.21 14.7-2 16.976-2.738 3.481-2.556 7.808.455 10.818C161.519 85.609 170 82.189 170 75.082c0-2.428-.673-4.381-1.889-5.481-1.642-1.486-1.977-3.822-2.567-17.905-.394-9.411-1.28-18.081-2.115-20.696-2.4-7.518-8.127-14.067-15.467-17.688-7.548-3.723-11.253-4.181-27.462-3.394m-57 42.932c-3.938 1.28-5.537 2.794-6.5 6.15-.59 2.059-.883 22.097-.739 50.624l.239 47.215 2.289 2.437c1.922 2.045 3.327 2.465 8.756 2.614l6.467.178-2.002-3.284c-1.93-3.165-2.003-5.03-2.006-51.394L70 59.279l2.47-3.639L74.94 52l-4.72.1c-2.596.055-5.62.392-6.72.75M111 187c-.813 1.519-.761 1.992.215 1.968 1.452-.036 4.785-2.354 4.785-3.328 0-1.546-4.032-.449-5 1.36m-85 2.5c.685.825 1.851 1.5 2.591 1.5.786 0 1.107-.624.771-1.5-.317-.825-1.483-1.5-2.591-1.5-1.679 0-1.808.251-.771 1.5m4.98 2.024c-1.632 1.967-.39 3.224 1.813 1.835 1.203-.759 2.194-.76 3.406-.003.941.588 2.02.759 2.398.38C39.744 192.589 36.905 190 34.5 190c-1.24 0-2.824.686-3.52 1.524m76.02-.003c0 2.338 4.293 3.928 6.874 2.547 1.169-.626 2.126-1.798 2.126-2.603 0-1.783-.459-1.82-2.989-.24-1.547.967-2.219.967-3.186 0-1.663-1.663-2.825-1.541-2.825.296m-75.744 4.527c-4.413.948-6.041 2.501-7.41 7.071-1.369 4.569-.014 10.514 3.021 13.261 2.609 2.361 8.474 3.136 12.164 1.607 3.864-1.6 5.969-5.614 5.969-11.382 0-7.548-6.064-12.206-13.744-10.557M0 207v11h3c2.833 0 3-.222 3-4v-4h8v4c0 3.6.25 4 2.5 4H19v-22h-2.5c-2.296 0-2.5.367-2.5 4.5v4.5H6v-4.5c0-4.333-.111-4.5-3-4.5H0zm57-9c0 1.556.667 2 3 2h3v18h6v-18h3c2.333 0 3-.444 3-2 0-1.852-.667-2-9-2s-9 .148-9 2m21 9v11h3c2.833 0 3-.222 3-4v-4h8v4c0 3.6.25 4 2.5 4H97v-22h-2.5c-2.296 0-2.5.367-2.5 4.5v4.5h-8v-4.5c0-4.333-.111-4.5-3-4.5h-3zm30.01-8.75c-.521 1.238-2.476 6.188-4.346 11l-3.399 8.75h2.751c1.91 0 2.911-.611 3.274-2 .425-1.624 1.364-2 5-2s4.575.376 5 2c.375 1.433 1.364 2 3.491 2h2.969l-4.014-11c-3.842-10.527-4.138-11-6.897-11-2.041 0-3.158.656-3.829 2.25M126 207v11h2.5c2.435 0 2.5-.187 2.5-7.197v-7.197l3.116 4.237 3.115 4.236 3.135-4.27 3.134-4.271.294 7.231c.281 6.932.395 7.231 2.75 7.231H149v-22h-3c-1.65 0-3 .354-3 .788 0 .433-1.286 2.328-2.859 4.212l-2.858 3.424-2.892-4.174c-2.184-3.154-3.563-4.183-5.641-4.212L126 196zm-95.429-5.429c-1.785 1.786-2.082 7.605-.536 10.495 1.286 2.402 6.177 2.588 8.07.308 1.741-2.098 1.741-8.65 0-10.748-1.714-2.065-5.495-2.093-7.534-.055m79.545 2.744c-1.614 4.071-1.38 5.685.825 5.685 2.694 0 2.99-.957 1.544-5l-1.253-3.5zm67.762 24.53c.759.513 1.043 1.474.632 2.139-.503.813-.136 1.091 1.122.848 2.765-.532 2.286-3.283-.632-3.625-1.809-.213-2.119-.037-1.122.638m-131.129.739c-.412.412-.749 3.374-.749 6.583 0 4.409.351 5.833 1.44 5.833.937 0 1.548-1.29 1.75-3.693l.31-3.694L52 238.3c3.762 5.547 5 4.833 5-2.883 0-4.828-.333-6.47-1.25-6.157-.694.237-1.25 2.052-1.25 4.084 0 2.012-.337 3.657-.75 3.657-.413-.001-.75-.355-.75-.789 0-1.525-5.511-7.368-6.251-6.628M72 230.5c0 .825.45 1.5 1 1.5s1-.675 1-1.5-.45-1.5-1-1.5-1 .675-1 1.5m11 5.055v6.555l4.75-.305c4.377-.281 4.775-.526 5.072-3.115.419-3.652-1.492-5.867-4.736-5.49-2.033.236-2.654-.181-2.906-1.95-.688-4.845-2.18-1.898-2.18 4.305m48.553-5.64a1.116 1.116 0 0 0 .362 1.532c.521.322 1.21.159 1.532-.362a1.116 1.116 0 0 0-.362-1.532 1.116 1.116 0 0 0-1.532.362m-7.826 2.354c-.268.698-.198 3.061.156 5.25.536 3.312 1.062 4.019 3.13 4.205 1.368.123 1.925-.027 1.237-.334-1.484-.661-1.701-6.39-.242-6.39.598 0 .5-.814-.24-2-1.418-2.27-3.318-2.614-4.041-.731m30 0c-.268.698-.198 3.061.156 5.25.536 3.312 1.062 4.019 3.13 4.205 1.368.123 1.925-.027 1.237-.334-1.484-.661-1.701-6.39-.242-6.39.598 0 .5-.814-.24-2-1.418-2.27-3.318-2.614-4.041-.731m-85.727.75c0 .577-1.044.757-2.407.415-3.941-.989-6.762 1.162-6.401 4.882.277 2.862.67 3.214 3.894 3.485 2.08.174 4.019-.246 4.619-1 1.549-1.948 2.592-8.801 1.34-8.801-.575 0-1.045.459-1.045 1.019m103 .025c0 .574-.784.911-1.742.75-1.308-.221-1.869.577-2.25 3.206-.712 4.903-3.406 4.727-3.818-.25-.171-2.062-.759-3.75-1.308-3.75-.555 0-.861 1.886-.689 4.25.306 4.229.328 4.251 4.557 4.557 4.105.297 4.25.208 4.25-2.627 0-1.614.675-3.495 1.5-4.18 1.714-1.423 1.977-3 .5-3-.55 0-1 .47-1 1.044m13 .001c0 .644-1.285.805-3.346.418-2.416-.453-3.806-.168-5 1.026-3.275 3.275-1.387 7.511 3.346 7.511 3.193 0 5-1.677 5-4.641 0-1.233.45-2.519 1-2.859s1-1.041 1-1.559-.45-.941-1-.941-1 .47-1 1.045M72 237.5c0 2.475.45 4.5 1 4.5s1-2.025 1-4.5-.45-4.5-1-4.5-1 2.025-1 4.5m24.5-3.5c-.351.567.49 1 1.941 1 1.407 0 2.559.408 2.559.906s-.819.693-1.82.431c-2.203-.576-4.627 2.055-3.823 4.15.385 1.004 1.936 1.513 4.612 1.513 3.894 0 4.031-.112 4.031-3.3 0-1.815-.54-3.84-1.2-4.5-1.456-1.456-5.446-1.582-6.3-.2m9.5 3.667c0 5.031 1.724 5.885 2.187 1.083.239-2.479.788-3.25 2.313-3.25s2.074.771 2.313 3.25c.415 4.296 2.187 4.193 2.187-.128 0-4.052-1.413-5.36-5.75-5.319-3.162.03-3.25.148-3.25 4.364m25-.25c0 3.194.412 4.583 1.358 4.583 1.773 0 1.672-8.153-.108-8.749-.879-.294-1.25.943-1.25 4.166m5 .25c0 5.031 1.724 5.885 2.187 1.083.239-2.479.788-3.25 2.313-3.25s2.074.771 2.313 3.25c.415 4.296 2.187 4.193 2.187-.128 0-4.052-1.413-5.36-5.75-5.319-3.162.03-3.25.148-3.25 4.364m51 0c0 5.031 1.724 5.885 2.187 1.083.239-2.479.788-3.25 2.313-3.25s2.074.771 2.313 3.25c.415 4.296 2.187 4.193 2.187-.128 0-4.052-1.413-5.36-5.75-5.319-3.162.03-3.25.148-3.25 4.364m12.75-3.564c-2.008 1.144-2.319 4.928-.55 6.697.66.66 2.515 1.2 4.122 1.2 2.504 0 2.742.218 1.659 1.523-.729.879-2.049 1.273-3.122.932-1.023-.324-1.859-.158-1.859.371 0 1.578 2.846 2.183 5.509 1.171 2.264-.861 2.491-1.482 2.491-6.81v-5.863l-3.25-.109c-1.787-.06-4.037.34-5 .888m-138.418 2.475c-.333.867.159 2.33 1.092 3.25 1.588 1.564 1.79 1.548 3.12-.246 1.054-1.421 1.136-2.263.317-3.25-1.498-1.805-3.79-1.68-4.529.246m24.662-.071c-1.103 1.329-1.076 1.84.164 3.08 2.021 2.021 5.033.754 4.645-1.954-.377-2.626-3.045-3.251-4.809-1.126m90.576.171c-.364.949.024 2.344.893 3.214 1.383 1.382 1.701 1.372 3.174-.1.9-.9 1.364-2.347 1.031-3.214-.802-2.09-4.284-2.022-5.098.1m24 0c-.364.949.024 2.344.893 3.214 1.383 1.382 1.701 1.372 3.174-.1.9-.9 1.364-2.347 1.031-3.214-.802-2.09-4.284-2.022-5.098.1m-103.027 2.253c-.317.512-.118 1.213.441 1.559 1.193.737 3.016-.199 3.016-1.549 0-1.217-2.707-1.225-3.457-.01M98.5 244c-.34.55.11 1 1 1s1.34-.45 1-1-.79-1-1-1-.66.45-1 1"/><path fill="#1976D2" fill-opacity=".526" fill-rule="evenodd" d="M123.316 10.963c-4.554 1.084-8.544 3.883-12.763 8.955-7.669 9.218-8.782 14.418-8.365 39.082l.312 18.5h6l.5-22.083.5-22.083 3.024-4.886c4.751-7.678 9.593-10.509 19.076-11.154 9.011-.614 12.868.544 18.612 5.587 6.716 5.897 7.23 8.049 7.788 32.619l.5 22h6v-44l-2.8-5.703c-3.424-6.97-10.652-13.684-17.285-16.052-5.078-1.813-15.193-2.188-21.099-.782M111 187.5c0 .825.395 1.5.878 1.5.482 0 1.437-.675 2.122-1.5 1.04-1.253.896-1.5-.878-1.5-1.22 0-2.122.638-2.122 1.5m-85 2c.685.825 1.64 1.5 2.122 1.5.483 0 .878-.675.878-1.5 0-.862-.902-1.5-2.122-1.5-1.774 0-1.918.247-.878 1.5m5.628 2.028c-.945 2.463-.798 2.634 1.3 1.511 1.06-.568 2.696-.737 3.636-.376 1.196.459 1.57.233 1.245-.754-.684-2.079-5.418-2.371-6.181-.381M107 190.8c0 3.112 7.302 4.462 8.417 1.557q1.327-3.463-2.295-1.201c-1.635 1.021-2.33 1.036-3.297.069-1.395-1.395-2.825-1.61-2.825-.425M1 207c0 10.225.137 11 1.943 11 1.57 0 2.001-.814 2.25-4.25.306-4.229.328-4.251 4.557-4.557l4.25-.308v4.558c0 4.194.199 4.557 2.5 4.557H19v-22h-2.5c-2.296 0-2.5.367-2.5 4.5v4.5H5v-4.5c0-3.833-.296-4.5-2-4.5-1.879 0-2 .667-2 11m25.923-8.077c-2.537 2.538-2.923 3.665-2.923 8.546 0 8.492 3.476 11.313 13 10.553 5.879-.47 9.301-7.738 7.1-15.082-1.467-4.898-4.38-6.94-9.899-6.94-3.48 0-4.942.587-7.278 2.923M57 198c0 1.619.667 2 3.5 2H64v9c0 8.333.148 9 2 9s2-.667 2-9v-9h3.5c2.833 0 3.5-.381 3.5-2 0-1.852-.667-2-9-2s-9 .148-9 2m21.812 9.002c-.305 10.753-.262 11.002 1.881 11 1.864-.002 2.238-.639 2.5-4.252.306-4.229.328-4.251 4.557-4.557l4.25-.308v4.558c0 4.194.199 4.557 2.5 4.557H97v-22h-2.5c-2.296 0-2.5.367-2.5 4.5v4.5h-9v-4.5c0-3.785-.308-4.5-1.938-4.5-1.78 0-1.963.892-2.25 11.002m29.682-9.752c-.243.688-2.029 5.451-3.968 10.586-1.939 5.134-3.526 9.522-3.526 9.75s.911.414 2.025.414c1.239 0 2.393-.969 2.975-2.5.816-2.146 1.576-2.5 5.367-2.5 3.877 0 4.493.305 5.044 2.5.467 1.861 1.289 2.5 3.215 2.5 1.643 0 2.424-.456 2.139-1.25-.246-.687-1.982-5.637-3.857-10.998-3.208-9.176-3.571-9.748-6.189-9.75-1.53-.001-2.981.561-3.225 1.248M126 207c0 10.74.053 11 2.25 11.002 2.151.002 2.235-.306 1.918-7-.192-4.054.074-7.002.631-7.002.53 0 2.208 1.631 3.728 3.624l2.764 3.625 3.317-3.875 3.317-3.874.037 7.25c.037 7.057.105 7.25 2.538 7.25h2.5v-11c0-10.992-.002-11-2.438-11-1.744 0-3.358 1.281-5.669 4.5-1.778 2.475-3.304 4.5-3.393 4.5s-1.615-2.025-3.393-4.5c-2.311-3.219-3.925-4.5-5.669-4.5-2.436 0-2.438.008-2.438 11m-95.8-5.8c-1.933 1.933-1.505 10.214.629 12.145 5.737 5.192 12.313-4.414 7.614-11.122-1.715-2.449-6.254-3.012-8.243-1.023m80.05 1.8c-2.635 6.702-2.605 7 .683 7 3.394 0 3.584-.71 1.607-6l-1.308-3.5zm68.65 26.38c.817.983.853 1.587.117 1.948-.617.302-.555.422.145.285 1.93-.378 2.082-2.305.239-3.013-1.367-.524-1.461-.377-.501.78M83 235.338v6.338l3.676.138c4.364.164 6.324-1.2 6.324-4.401 0-2.757-2.785-4.543-5.838-3.745-1.809.473-2.162.138-2.162-2.051 0-1.44-.45-2.617-1-2.617-.561 0-1 2.779-1 6.338m-35.825.912c.138 4.934.255 5.355.557 2 .211-2.338.747-4.25 1.193-4.25.445 0 2.011 1.816 3.48 4.036s3.104 3.768 3.633 3.441c1.275-.788 1.242-10.186-.038-10.977-.604-.373-1 .99-1 3.441 0 2.232-.337 4.056-.75 4.051s-1.776-1.804-3.03-4S48.504 230 47.97 230c-.542 0-.893 2.758-.795 6.25m77.011-3.176c-.729 1.167-.805 1.926-.194 1.926.554 0 1.008 1.575 1.008 3.5 0 2.972.339 3.495 2.25 3.47 2.009-.028 2.063-.14.5-1.05-1.83-1.066-2.429-5.51-.82-6.087.512-.183.374-1.087-.306-2.009-1.144-1.551-1.325-1.532-2.438.25m30.139-1.416c.362.362.19 1.222-.382 1.911-.721.868-.718 1.452.008 1.901.577.356 1.049 1.971 1.049 3.589 0 2.392.42 2.935 2.25 2.911 2.009-.028 2.063-.14.5-1.05-1.851-1.078-2.457-5.92-.742-5.92.598 0 .5-.814-.24-2-.687-1.1-1.666-2-2.175-2-.51 0-.63.296-.268.658M69 232.897c0 .728-1.123 1.143-2.75 1.016-5.011-.391-6.206.063-6.843 2.6-.819 3.264 1.077 5.487 4.68 5.487 2.94 0 5.599-3.08 4.373-5.064-.348-.563-.079-1.69.596-2.504.676-.814.94-1.769.587-2.123-.354-.353-.643-.089-.643.588m101.25.54c-1.271.586-2.25 1.935-2.25 3.1 0 2.336-1.763 4.463-3.7 4.463-.819 0-1.3-1.295-1.3-3.5 0-1.925-.477-3.5-1.06-3.5-.614 0-.93 1.579-.75 3.75.298 3.605.455 3.751 4.06 3.782 3.402.029 3.75-.215 3.75-2.628 0-1.644.86-3.238 2.25-4.173 2.755-1.852 2.086-2.718-1-1.294m13.75-.312c0 .711-1.08.909-2.936.538-2.039-.408-3.632-.024-5.214 1.257-2.005 1.624-2.135 2.158-1.085 4.463.887 1.947 1.935 2.617 4.091 2.617 1.595 0 3.346-.562 3.891-1.25 1.126-1.418 2.632-8.75 1.798-8.75-.3 0-.545.506-.545 1.125M97 234c-1.173.758-.914.973 1.191.985 1.48.008 2.969.465 3.309 1.015.36.582-.637 1-2.382 1-3.346 0-4.423 1.041-3.519 3.399.422 1.097 1.768 1.533 4.414 1.429 3.718-.145 3.799-.23 3.484-3.626-.432-4.64-3.124-6.382-6.497-4.202m12.527-.044c-.325.526-1.252.703-2.059.393-1.144-.439-1.468.344-1.468 3.544 0 4.863 1.735 5.543 2.187.857.24-2.491.838-3.325 2.563-3.57 1.973-.28 2.25.121 2.25 3.25 0 1.964.45 3.57 1 3.57s1-1.559 1-3.465c0-2.402-.593-3.782-1.934-4.5-2.385-1.276-2.793-1.285-3.539-.079m28.723-.25c-1.878.361-2.25 1.083-2.25 4.364 0 4.731 1.744 5.273 2.187.68.24-2.491.838-3.325 2.563-3.57 1.973-.28 2.25.121 2.25 3.25 0 1.964.45 3.57 1 3.57 1.595 0 1.156-5.701-.571-7.429-.865-.864-1.877-1.51-2.25-1.435-.374.075-1.691.331-2.929.57m51.5.072c-2.474.319-2.75.75-2.75 4.288 0 4.734 1.744 5.279 2.187.684.24-2.491.838-3.325 2.563-3.57 1.973-.28 2.25.121 2.25 3.25 0 1.964.45 3.57 1 3.57s1-1.559 1-3.465c0-3.91-1.856-5.323-6.25-4.757m10.201 1.061c-2.138 1.731-2.253 2.202-1.137 4.653 1.039 2.279 1.737 2.654 4.256 2.284 4.115-.604 3.583 2.457-.582 3.348l-2.988.639 3.05.119c4.194.162 5.45-1.469 5.45-7.082 0-3.477-.391-4.8-1.418-4.8-.78 0-2.056-.245-2.835-.544-.78-.299-2.488.323-3.796 1.383M72 238c0 2.2.45 4 1 4s1-1.8 1-4-.45-4-1-4-1 1.8-1 4m59 0c0 2.2.45 4 1 4s1-1.8 1-4-.45-4-1-4-1 1.8-1 4m-69.638-1.5c-.793 2.064.282 4.5 1.984 4.5 2.002 0 3.984-2.698 3.297-4.487-.749-1.954-4.533-1.963-5.281-.013m23.997.007c-.353.92.057 2.337.927 3.207 2.124 2.124 4.941.907 4.534-1.96-.394-2.777-4.513-3.717-5.461-1.247m91.171-.555c-1.274 2.061.529 5.181 2.806 4.856 3.054-.435 3.061-5.18.008-5.615-1.185-.169-2.452.172-2.814.759m23.859.478c-.996 2.595.399 4.739 2.857 4.39 1.652-.235 2.254-.987 2.254-2.82s-.602-2.585-2.254-2.82c-1.353-.192-2.496.308-2.857 1.25M97.25 239.25c.229.688 1.242 1.25 2.25 1.25s2.021-.562 2.25-1.25c.264-.792-.561-1.25-2.25-1.25s-2.514.458-2.25 1.25"/></svg>